HIERARCHY
ROOT Hips
{
	OFFSET -13.091600 -28.302996 44.698402
	CHANNELS 6 Xposition Yposition Zposition Zrotation Xrotation Yrotation
	JOINT Chest
	{
		OFFSET -0.673000 0.623899 5.369202
		CHANNELS 6 Xposition Yposition Zposition Zrotation Xrotation Yrotation
		JOINT Chest2
		{
			OFFSET 0.000000 0.000000 4.415001
			CHANNELS 6 Xposition Yposition Zposition Zrotation Xrotation Yrotation
			JOINT Neck
			{
				OFFSET 0.000000 0.000002 10.273300
				CHANNELS 6 Xposition Yposition Zposition Zrotation Xrotation Yrotation
				JOINT Head
				{
					OFFSET 0.000000 0.000000 2.173897
					CHANNELS 6 Xposition Yposition Zposition Zrotation Xrotation Yrotation
					End Site
					{
						OFFSET 0.000000 0.000000 9.961800
					}
				}
			}
			JOINT LeftCollar
			{
				OFFSET 2.359900 -0.565201 5.928101
				CHANNELS 6 Xposition Yposition Zposition Zrotation Xrotation Yrotation
				JOINT LeftShoulder
				{
					OFFSET 5.443700 0.000000 0.000000
					CHANNELS 6 Xposition Yposition Zposition Zrotation Xrotation Yrotation
					JOINT LeftElbow
					{
						OFFSET 0.000000 0.000000 -10.615799
						CHANNELS 6 Xposition Yposition Zposition Zrotation Xrotation Yrotation
						JOINT LeftWrist
						{
							OFFSET 0.000000 -0.000002 -13.110302
							CHANNELS 6 Xposition Yposition Zposition Zrotation Xrotation Yrotation
							End Site
							{
								OFFSET 0.000000 0.000000 -2.173901
							}
						}
					}
				}
			}
			JOINT RightCollar
			{
				OFFSET -2.636600 -1.718800 6.889698
				CHANNELS 6 Xposition Yposition Zposition Zrotation Xrotation Yrotation
				JOINT RightShoulder
				{
					OFFSET -4.139101 0.000000 0.000000
					CHANNELS 6 Xposition Yposition Zposition Zrotation Xrotation Yrotation
					JOINT RightElbow
					{
						OFFSET 0.000000 0.000000 -10.471802
						CHANNELS 6 Xposition Yposition Zposition Zrotation Xrotation Yrotation
						JOINT RightWrist
						{
							OFFSET 0.000000 0.000000 -12.281898
							CHANNELS 6 Xposition Yposition Zposition Zrotation Xrotation Yrotation
							End Site
							{
								OFFSET 0.000000 -0.000002 -2.173901
							}
						}
					}
				}
			}
		}
	}
	JOINT LeftHip
	{
		OFFSET 2.273400 0.176701 -2.518002
		CHANNELS 6 Xposition Yposition Zposition Zrotation Xrotation Yrotation
		JOINT LeftKnee
		{
			OFFSET 0.000000 -0.000002 -20.456402
			CHANNELS 6 Xposition Yposition Zposition Zrotation Xrotation Yrotation
			JOINT LeftAnkle
			{
				OFFSET 0.000000 -0.000002 -16.635300
				CHANNELS 6 Xposition Yposition Zposition Zrotation Xrotation Yrotation
				End Site
				{
					OFFSET 0.000000 -8.812399 0.000001
				}
			}
		}
	}
	JOINT RightHip
	{
		OFFSET -1.914800 0.018101 -2.699299
		CHANNELS 6 Xposition Yposition Zposition Zrotation Xrotation Yrotation
		JOINT RightKnee
		{
			OFFSET 0.000000 -0.000002 -20.148901
			CHANNELS 6 Xposition Yposition Zposition Zrotation Xrotation Yrotation
			JOINT RightAnkle
			{
				OFFSET 0.000000 -0.000002 -16.838301
				CHANNELS 6 Xposition Yposition Zposition Zrotation Xrotation Yrotation
				End Site
				{
					OFFSET 0.000000 -8.328398 0.000001
				}
			}
		}
	}
}
MOTION
Frames: 6
Frame Time: 0.041667
-16.594599 -43.947304 19.569498 766.613657 18.060745 -5.159601 -0.673002 0.623901 5.369204 3.179256 22.233422 17.718781 0.000001 -0.000000 4.415007 -8.881362 -3.966896 -0.787756 0.000001 -0.000000 10.273294 9.995325 20.338237 5.937122 -0.000004 -0.000003 2.173902 2.181975 -1.714724 -1.727735 2.359903 -0.565201 5.928092 13.950793 -4.543948 -1.436981 5.443700 -0.000002 0.000002 -39.985792 29.801601 -56.034841 0.000001 -0.000003 -10.615791 551.275824 -184.579196 180.100463 0.000010 -0.000001 -13.110299 -122.256315 -193.891517 195.704276 -2.636599 -1.718801 6.889691 194.773404 -185.649746 222.725502 -4.139099 0.000008 -0.000001 101.937534 -396.302329 116.894658 0.000003 0.000000 -10.471800 14.557534 -18.616768 -5.549231 0.000000 0.000001 -12.281898 34.151410 -3.525981 4.938268 2.273399 0.176703 -2.518004 -60.559934 -146.993143 -54.248897 0.000003 -0.000002 -20.456396 21.794294 189.995632 -43.083795 -0.000005 -0.000005 -16.635302 67.082245 -5.505126 35.811191 -1.914795 0.018104 -2.699298 29.016426 196.029284 105.226400 0.000002 0.000001 -20.148905 211.904092 -7.598072 -122.896960 -0.000003 -0.000003 -16.838303 -109.921984 4.733124 -41.891302
-16.909599 -44.100800 19.610704 765.921895 17.728130 -4.934352 -0.673004 0.623899 5.369208 3.254173 21.510047 17.647170 -0.000003 -0.000005 4.415011 -9.066963 -3.826452 -0.785639 -0.000002 -0.000004 10.273302 11.073239 20.365580 5.394286 0.000000 -0.000005 2.173898 2.283043 -1.647021 -1.595531 2.359895 -0.565202 5.928096 14.953750 -5.670860 -2.273051 5.443686 -0.000005 -0.000001 -39.510261 29.814124 -55.023140 0.000001 -0.000003 -10.615798 550.373310 -184.408059 180.238857 0.000008 -0.000004 -13.110291 -122.283636 -193.928154 195.939973 -2.636602 -1.718808 6.889701 194.508570 -184.485882 222.773054 -4.139098 0.000006 -0.000004 102.422757 -395.441807 117.110219 0.000001 -0.000004 -10.471794 12.378606 -19.958156 -6.185529 -0.000001 0.000007 -12.281897 35.071730 -3.745620 5.399378 2.273395 0.176712 -2.518003 -60.879423 -147.145511 -55.004514 -0.000004 -0.000005 -20.456396 20.604456 190.525258 -43.510439 -0.000003 -0.000005 -16.635300 68.016253 -5.475349 36.069911 -1.914798 0.018105 -2.699293 30.192807 196.929845 105.679856 -0.000002 -0.000005 -20.148901 211.222698 -6.488447 -123.455847 -0.000002 0.000001 -16.838301 -109.274544 4.630636 -41.479404
-17.231997 -44.263199 19.648701 765.137626 17.480954 -4.650733 -0.672999 0.623898 5.369209 3.216259 20.548634 17.523637 -0.000003 -0.000003 4.415012 -8.790516 -3.882712 -0.774363 -0.000004 -0.000006 10.273307 11.912123 20.590322 4.878270 -0.000004 -0.000001 2.173903 2.340868 -1.506857 -1.553043 2.359894 -0.565205 5.928102 15.126294 -5.831264 -2.480936 5.443692 0.000001 -0.000000 -38.202474 30.196400 -55.013701 0.000002 -0.000003 -10.615794 549.816240 -184.235105 180.335190 0.000008 -0.000004 -13.110294 -122.220457 -194.354781 196.037535 -2.636606 -1.718809 6.889703 194.325589 -184.722207 222.424619 -4.139102 -0.000000 -0.000007 103.099438 -395.530381 118.595594 -0.000002 0.000003 -10.471793 11.459579 -21.348625 -7.136593 0.000002 0.000000 -12.281894 36.265361 -3.969384 5.693282 2.273398 0.176706 -2.517998 -61.078652 -147.266228 -55.663450 0.000002 -0.000000 -20.456400 19.392270 191.003877 -43.938597 -0.000002 -0.000011 -16.635300 68.868565 -5.408414 36.203752 -1.914795 0.018106 -2.699294 31.601144 197.919020 106.215657 0.000005 -0.000001 -20.148903 210.386315 -5.369426 -124.044309 0.000001 -0.000002 -16.838301 -108.625949 4.478319 -41.148072
-17.565998 -44.436699 19.693203 764.343521 17.233544 -4.407495 -0.673008 0.623896 5.369203 2.998261 19.487780 17.389551 0.000005 -0.000006 4.415006 -8.093537 -4.139063 -0.758704 0.000002 -0.000002 10.273303 12.450386 20.972330 4.473463 0.000001 0.000004 2.173898 2.420899 -1.292445 -1.571942 2.359901 -0.565206 5.928101 14.568706 -5.100704 -2.053320 5.443684 -0.000001 0.000005 -36.158881 30.877960 -56.008931 -0.000002 -0.000006 -10.615800 549.590133 -184.057711 180.389176 0.000004 -0.000001 -13.110304 -121.996618 -194.456360 195.873037 -2.636601 -1.718805 6.889690 194.247329 -186.221611 221.704484 -4.139102 -0.000002 -0.000003 103.034770 -395.223705 120.618477 -0.000001 0.000001 -10.471798 10.422449 -22.856364 -8.275696 -0.000001 0.000004 -12.281898 37.493705 -3.955725 5.741990 2.273392 0.176697 -2.518006 -61.303810 -147.391575 -56.418131 -0.000002 -0.000000 -20.456398 18.106440 191.525430 -44.440762 -0.000005 -0.000003 -16.635298 69.748300 -5.286636 36.405776 -1.914797 0.018108 -2.699299 33.087721 198.930066 106.788280 0.000004 -0.000000 -20.148905 209.506258 -4.281059 -124.640434 -0.000003 0.000004 -16.838301 -108.071877 4.313360 -40.804216
-17.910801 -44.618896 19.744003 763.588648 16.956611 -4.238652 -0.672993 0.623896 5.369200 2.650342 18.398230 17.201037 0.000004 -0.000000 4.415006 -7.038618 -4.592641 -0.742865 0.000004 0.000000 10.273314 12.572795 21.531977 4.323848 0.000000 -0.000004 2.173903 2.537143 -1.039281 -1.627451 2.359901 -0.565203 5.928105 13.192148 -3.412693 -0.833344 5.443705 0.000003 0.000000 -33.415789 31.980534 -58.068800 -0.000001 0.000001 -10.615796 549.827605 -183.933921 180.390446 0.000006 -0.000005 -13.110303 -121.434029 -194.864696 195.670931 -2.636590 -1.718804 6.889700 194.322707 -188.901654 220.528968 -4.139098 0.000005 -0.000003 101.877237 -394.106587 122.824983 0.000000 0.000009 -10.471802 8.831994 -24.431105 -9.542264 0.000001 0.000001 -12.281890 39.127292 -4.343507 6.195262 2.273400 0.176702 -2.518007 -61.559587 -147.358586 -57.241985 0.000001 -0.000010 -20.456400 16.925714 191.970526 -44.993482 -0.000004 -0.000005 -16.635300 70.560827 -5.118792 36.639785 -1.914793 0.018105 -2.699304 34.604498 199.912971 107.377916 0.000008 -0.000001 -20.148901 208.700214 -3.131215 -125.291802 0.000001 0.000001 -16.838303 -107.529902 4.136778 -40.418628
-18.267199 -44.809990 19.799004 762.777495 17.002853 -4.176574 -0.672998 0.623900 5.369205 2.702973 17.202772 16.968785 0.000000 0.000000 4.415009 -6.457364 -4.903513 -0.696658 0.000002 0.000001 10.273302 12.760739 21.939029 4.278390 0.000003 -0.000004 2.173898 2.552802 -0.871205 -1.594222 2.359903 -0.565202 5.928099 12.195185 -2.172099 0.115170 5.443696 -0.000003 -0.000002 -31.128102 32.896937 -59.784537 0.000000 -0.000002 -10.615798 550.052674 -183.866466 180.383124 0.000010 -0.000004 -13.110299 -120.757471 -195.221245 195.368054 -2.636598 -1.718800 6.889699 194.331723 -190.551063 219.829625 -4.139103 -0.000001 -0.000004 100.962811 -393.384199 124.521220 -0.000001 0.000010 -10.471802 6.903428 -25.912141 -10.967616 -0.000001 0.000000 -12.281896 41.001410 -4.464002 6.646414 2.273396 0.176699 -2.518005 -61.576396 -147.509915 -57.845821 -0.000004 -0.000004 -20.456396 15.786353 192.449842 -45.572696 -0.000004 -0.000008 -16.635298 71.333697 -4.990723 36.961716 -1.914798 0.018105 -2.699304 36.084289 200.616357 107.697330 0.000004 -0.000005 -20.148905 208.070798 -1.843389 -125.969493 0.000000 0.000001 -16.838306 -106.888765 3.947545 -39.921694
